<?xml version="1.0" standalone="no"?>
<!DOCTYPE svg PUBLIC "-//W3C//DTD SVG 20010904//EN"
 "http://www.w3.org/TR/2001/REC-SVG-20010904/DTD/svg10.dtd">
<svg version="1.0" xmlns="http://www.w3.org/2000/svg"
 width="1305.000000pt" height="1305.000000pt" viewBox="0 0 1305.000000 1305.000000"
 preserveAspectRatio="xMidYMid meet">
<metadata>
Created by potrace 1.14, written by Peter Selinger 2001-2017
</metadata>
<g transform="translate(0.000000,1305.000000) scale(0.100000,-0.100000)"
fill="#000000" stroke="none">
<path d="M9848 12944 c-2 -1 -42 -5 -90 -8 -116 -7 -194 -15 -318 -32 -58 -8
-123 -17 -145 -20 -22 -3 -65 -9 -95 -14 -30 -5 -71 -11 -90 -14 -19 -2 -51
-7 -70 -10 -312 -54 -439 -77 -460 -81 -14 -3 -41 -8 -60 -11 -19 -3 -42 -7
-50 -9 -8 -2 -28 -7 -45 -10 -16 -2 -41 -7 -55 -10 -87 -19 -129 -27 -155 -31
-16 -2 -36 -6 -43 -9 -8 -3 -78 -19 -155 -36 -78 -17 -167 -37 -197 -46 -30
-8 -65 -16 -77 -19 -12 -2 -34 -9 -48 -14 -14 -5 -25 -8 -25 -5 0 2 -15 -1
-32 -6 -18 -6 -40 -12 -48 -14 -470 -112 -1307 -399 -1733 -594 -37 -17 -69
-31 -71 -31 -16 0 -604 -288 -751 -368 -49 -27 -126 -69 -170 -94 -44 -25 -96
-54 -115 -65 -345 -194 -901 -559 -1274 -836 -123 -92 -152 -109 -188 -112
-24 -2 -81 -6 -128 -10 -47 -3 -103 -8 -125 -11 -22 -2 -62 -7 -90 -10 -27 -3
-61 -7 -75 -9 -14 -2 -50 -7 -80 -11 -30 -4 -57 -8 -60 -9 -3 -1 -30 -5 -60
-10 -30 -5 -57 -9 -60 -10 -3 -1 -25 -5 -50 -9 -163 -28 -461 -117 -630 -188
-103 -44 -295 -139 -375 -187 -27 -17 -63 -38 -80 -47 -94 -53 -266 -175 -325
-230 -75 -71 -155 -181 -193 -265 -46 -100 -104 -306 -122 -429 -3 -25 -8 -61
-11 -80 -10 -60 -14 -393 -5 -430 4 -22 2 -54 -6 -86 -45 -177 -54 -507 -18
-713 l22 -124 -51 -101 c-135 -268 -232 -501 -328 -791 -47 -142 -121 -413
-131 -482 -3 -17 -7 -35 -10 -40 -3 -4 -8 -33 -12 -63 -4 -30 -9 -58 -11 -61
-2 -3 -6 -25 -9 -48 -3 -24 -7 -52 -10 -64 -5 -25 -11 -69 -20 -142 -3 -27 -7
-63 -10 -80 -25 -178 -25 -721 0 -878 2 -12 6 -44 10 -72 3 -27 11 -79 16
-115 6 -36 12 -77 14 -92 23 -169 132 -554 220 -776 35 -88 35 -92 20 -128
-16 -38 -40 -125 -49 -179 -7 -35 -8 -197 -2 -240 3 -25 17 -85 30 -130 15
-56 70 -222 76 -230 3 -5 15 -32 25 -60 54 -149 191 -422 297 -592 72 -113
168 -253 192 -279 6 -7 20 -24 31 -40 103 -145 425 -479 610 -633 285 -236
572 -424 899 -588 83 -41 162 -81 176 -88 14 -7 96 -43 182 -79 312 -129 781
-274 948 -291 30 -3 71 -7 90 -10 19 -2 60 -7 90 -10 30 -3 71 -8 90 -10 19
-3 61 -7 93 -11 32 -3 66 -7 75 -9 58 -11 204 -20 307 -19 185 2 753 14 915
19 80 3 231 7 335 11 119 3 207 10 235 19 25 8 83 17 130 20 78 5 112 8 240
20 25 3 72 7 105 10 33 3 76 7 95 10 19 2 69 7 110 10 41 3 91 8 110 10 19 3
69 7 110 10 41 4 91 8 110 10 206 22 388 22 635 0 28 -2 81 -7 120 -11 38 -3
78 -8 88 -10 11 -2 52 -6 91 -10 39 -3 74 -8 77 -10 4 -2 105 -6 225 -9 231
-6 270 -8 399 -22 44 -4 154 -7 245 -6 91 1 282 2 425 4 l260 2 163 54 163 54
192 135 c106 74 197 145 203 157 6 12 26 77 44 145 l33 122 -33 128 c-18 70
-41 190 -52 267 -20 150 -27 178 -82 356 -48 156 -223 468 -295 526 -25 21
-51 43 -58 49 -6 6 -52 44 -102 84 -66 54 -113 103 -173 184 -46 61 -87 116
-91 121 -24 30 -139 189 -177 245 -25 36 -47 67 -50 70 -17 17 -93 137 -127
200 -22 41 -51 95 -65 120 -97 173 -111 206 -144 338 -29 118 -56 233 -70 307
-2 11 -10 43 -17 71 -7 28 -12 80 -11 115 8 180 8 293 1 374 -19 217 -17 199
-77 510 -21 110 -41 214 -44 230 -9 56 -144 399 -211 538 -36 76 -77 148 -91
160 -14 12 -34 38 -45 57 -20 35 -24 37 -194 84 -172 48 -185 49 -265 31 -26
-5 -52 -11 -105 -21 -16 -3 -49 -9 -73 -15 -23 -5 -59 -12 -79 -15 -49 -8 -70
-17 -124 -56 -26 -18 -82 -57 -125 -87 -95 -65 -127 -90 -310 -243 -114 -96
-158 -140 -227 -231 -47 -61 -104 -136 -127 -166 -49 -63 -55 -77 -80 -195
-11 -50 -25 -100 -30 -111 -19 -41 -129 -323 -153 -395 -14 -41 -40 -129 -57
-195 -17 -66 -33 -128 -36 -138 -3 -11 -51 -69 -107 -130 -55 -61 -112 -124
-126 -140 -14 -16 -76 -65 -138 -108 -154 -110 -253 -152 -378 -164 -38 -3
-86 -8 -107 -11 -34 -4 -75 14 -125 56 -7 5 -16 10 -20 10 -22 1 -67 56 -126
151 -60 97 -67 115 -78 190 -27 182 -12 366 44 541 23 74 29 81 130 181 58 58
140 130 181 161 121 89 218 160 256 186 19 14 42 30 50 37 14 12 290 212 449
325 60 42 201 151 256 196 6 4 66 53 135 107 69 55 127 102 130 105 3 3 70 57
150 120 80 63 152 120 160 127 8 7 105 82 215 168 110 86 207 161 215 168 8 7
51 40 95 74 163 125 294 229 351 279 94 81 435 375 490 421 28 24 62 53 76 65
27 25 110 96 173 149 22 19 64 61 94 94 30 33 79 87 110 120 45 49 185 201
261 284 8 9 42 39 75 66 33 28 62 52 65 55 3 3 30 25 60 50 30 25 57 47 60 50
3 3 73 61 155 130 83 68 170 142 195 164 25 23 78 70 118 105 40 35 92 82 115
104 51 47 338 320 382 362 68 66 153 142 204 185 29 25 90 77 136 115 45 39
126 108 181 153 54 46 121 102 148 125 48 41 140 134 490 490 166 170 170 175
307 394 311 497 397 661 470 898 56 178 60 382 12 555 -46 167 -192 385 -328
491 -27 22 -59 46 -70 55 -31 25 -144 79 -210 102 -83 28 -150 42 -220 46 -48
2 -79 12 -152 49 -94 48 -124 60 -248 102 -127 43 -344 92 -485 110 -25 3 -56
8 -70 10 -14 3 -59 7 -100 11 -41 3 -91 8 -110 10 -40 5 -667 13 -672 8z"/>
<path d="M11952 10330 c-14 -23 -15 -30 -3 -30 8 0 24 41 18 47 -2 1 -8 -7
-15 -17z"/>
</g>
</svg>
